<?xml version="1.0" encoding="UTF-8" standalone="no"?>
<!-- Created with Inkscape (http://www.inkscape.org/) -->

<svg
   xmlns:dc="http://purl.org/dc/elements/1.1/"
   xmlns:cc="http://creativecommons.org/ns#"
   xmlns:rdf="http://www.w3.org/1999/02/22-rdf-syntax-ns#"
   xmlns:svg="http://www.w3.org/2000/svg"
   xmlns="http://www.w3.org/2000/svg"
   xmlns:sodipodi="http://sodipodi.sourceforge.net/DTD/sodipodi-0.dtd"
   xmlns:inkscape="http://www.inkscape.org/namespaces/inkscape"
   width="72.430046mm"
   height="146.51338mm"
   viewBox="0 0 72.430046 146.51338"
   version="1.1"
   id="svg8"
   inkscape:version="0.92.2 5c3e80d, 2017-08-06"
   sodipodi:docname="buttons.svg"
   inkscape:export-filename="/Users/martin/code/gitwork/war/resources/soundbutton.png"
   inkscape:export-xdpi="90.099998"
   inkscape:export-ydpi="90.099998">
  <defs
     id="defs2" />
  <sodipodi:namedview
     id="base"
     pagecolor="#ffffff"
     bordercolor="#666666"
     borderopacity="1.0"
     inkscape:pageopacity="0.0"
     inkscape:pageshadow="2"
     inkscape:zoom="1.4"
     inkscape:cx="173.83734"
     inkscape:cy="259.2238"
     inkscape:document-units="mm"
     inkscape:current-layer="layer1"
     showgrid="false"
     inkscape:window-width="1440"
     inkscape:window-height="855"
     inkscape:window-x="0"
     inkscape:window-y="1"
     inkscape:window-maximized="1"
     fit-margin-top="0"
     fit-margin-left="0"
     fit-margin-right="0"
     fit-margin-bottom="0" />
  <metadata
     id="metadata5">
    <rdf:RDF>
      <cc:Work
         rdf:about="">
        <dc:format>image/svg+xml</dc:format>
        <dc:type
           rdf:resource="http://purl.org/dc/dcmitype/StillImage" />
        <dc:title></dc:title>
      </cc:Work>
    </rdf:RDF>
  </metadata>
  <g
     inkscape:label="Layer 1"
     inkscape:groupmode="layer"
     id="layer1"
     transform="translate(-43.680065,-79.702248)">
    <g
       id="g4568"
       inkscape:export-xdpi="90.099998"
       inkscape:export-ydpi="90.099998">
      <rect
         y="79.702248"
         x="43.680065"
         height="72.430046"
         width="72.430046"
         id="rect836"
         style="fill:#f2f2f2;fill-opacity:0.07476633;stroke:none;stroke-width:2.12599993;stroke-linecap:round;stroke-miterlimit:4;stroke-dasharray:none;stroke-dashoffset:0;stroke-opacity:1" />
      <g
         id="g851">
        <path
           style="fill:#d6d6d6;fill-opacity:1;fill-rule:evenodd;stroke:none;stroke-width:0.26458332px;stroke-linecap:butt;stroke-linejoin:miter;stroke-opacity:1"
           d="m 72.93104,88.325007 16.630951,18.394843 h 4.91369 11.575519 c 0,0 1.10535,-0.1225 2.26352,1.03567 1.08392,1.08393 0.90203,3.56304 0.90203,3.56304 v 9.19742 c 0,0 0.18189,2.57934 -0.90203,3.66327 -1.15817,1.15816 -2.26352,0.93544 -2.26352,0.93544 H 94.475681 89.561991 L 72.93104,143.50953 c 0,0 -5.15191,-9.13336 -5.480654,-28.15923 C 67.121642,96.324434 72.93104,88.325007 72.93104,88.325007 Z"
           id="path815"
           inkscape:connector-curvature="0"
           sodipodi:nodetypes="ccccsccscccczc" />
        <path
           sodipodi:nodetypes="csssssc"
           inkscape:connector-curvature="0"
           id="path838"
           d="m 66.82925,141.78516 c -0.488128,-1.15353 -1.14239,-2.88976 -1.806925,-5.22054 -0.664535,-2.33079 -1.339344,-5.25614 -1.868565,-8.7879 -0.529221,-3.53177 -0.912855,-7.66995 -0.995041,-12.42642 -0.08219,-4.75647 0.219262,-8.82378 0.717663,-12.24924 0.498402,-3.425458 1.193757,-6.209061 1.899385,-8.398106 0.705628,-2.189045 1.42153,-3.783532 1.961024,-4.830757"
           style="fill:none;fill-opacity:1;fill-rule:evenodd;stroke:#d6d6d6;stroke-width:2;stroke-linecap:round;stroke-linejoin:miter;stroke-miterlimit:4;stroke-dasharray:none;stroke-opacity:1" />
        <path
           style="fill:none;fill-opacity:1;fill-rule:evenodd;stroke:#d6d6d6;stroke-width:2;stroke-linecap:round;stroke-linejoin:miter;stroke-miterlimit:4;stroke-dasharray:none;stroke-opacity:1"
           d="m 59.730658,136.56462 c -0.664535,-2.33079 -1.339344,-5.25614 -1.868565,-8.7879 -0.529221,-3.53177 -0.912855,-7.66995 -0.995041,-12.42642 -0.08219,-4.75647 0.219262,-8.82378 0.717663,-12.24924 0.498402,-3.425458 1.193757,-6.209061 1.899385,-8.398106"
           id="path840"
           inkscape:connector-curvature="0"
           sodipodi:nodetypes="csssc" />
        <path
           sodipodi:nodetypes="csssc"
           inkscape:connector-curvature="0"
           id="path842"
           d="m 59.730658,136.56462 c -0.664535,-2.33079 -1.339344,-5.25614 -1.868565,-8.7879 -0.529221,-3.53177 -0.912855,-7.66995 -0.995041,-12.42642 -0.08219,-4.75647 0.219262,-8.82378 0.717663,-12.24924 0.498402,-3.425458 1.193757,-6.209061 1.899385,-8.398106"
           style="fill:none;fill-opacity:1;fill-rule:evenodd;stroke:#d6d6d6;stroke-width:2;stroke-linecap:round;stroke-linejoin:miter;stroke-miterlimit:4;stroke-dasharray:none;stroke-opacity:1" />
        <path
           style="fill:none;fill-opacity:1;fill-rule:evenodd;stroke:#d6d6d6;stroke-width:2;stroke-linecap:round;stroke-linejoin:miter;stroke-miterlimit:4;stroke-dasharray:none;stroke-opacity:1"
           d="m 52.570426,127.77672 c -0.529221,-3.53177 -0.912855,-7.66995 -0.995041,-12.42642 -0.08219,-4.75647 0.219262,-8.82378 0.717663,-12.24924"
           id="path844"
           inkscape:connector-curvature="0"
           sodipodi:nodetypes="csc" />
      </g>
    </g>
    <g
       id="g4584"
       transform="translate(0,74.083334)"
       inkscape:export-xdpi="90.099998"
       inkscape:export-ydpi="90.099998">
      <g
         id="g4604">
        <rect
           y="79.702248"
           x="43.680065"
           height="72.430046"
           width="72.430046"
           id="rect4570"
           style="fill:#f2f2f2;fill-opacity:0.07476633;stroke:none;stroke-width:2.12599993;stroke-linecap:round;stroke-miterlimit:4;stroke-dasharray:none;stroke-dashoffset:0;stroke-opacity:1" />
        <g
           id="g4582">
          <path
             style="fill:#d6d6d6;fill-opacity:1;fill-rule:evenodd;stroke:none;stroke-width:0.26458332px;stroke-linecap:butt;stroke-linejoin:miter;stroke-opacity:1"
             d="m 72.93104,88.325007 16.630951,18.394843 h 4.91369 11.575519 c 0,0 1.10535,-0.1225 2.26352,1.03567 1.08392,1.08393 0.90203,3.56304 0.90203,3.56304 v 9.19742 c 0,0 0.18189,2.57934 -0.90203,3.66327 -1.15817,1.15816 -2.26352,0.93544 -2.26352,0.93544 H 94.475681 89.561991 L 72.93104,143.50953 c 0,0 -5.15191,-9.13336 -5.480654,-28.15923 C 67.121642,96.324434 72.93104,88.325007 72.93104,88.325007 Z"
             id="path4572"
             inkscape:connector-curvature="0"
             sodipodi:nodetypes="ccccsccscccczc" />
          <path
             sodipodi:nodetypes="csssssc"
             inkscape:connector-curvature="0"
             id="path4574"
             d="m 66.82925,141.78516 c -0.488128,-1.15353 -1.14239,-2.88976 -1.806925,-5.22054 -0.664535,-2.33079 -1.339344,-5.25614 -1.868565,-8.7879 -0.529221,-3.53177 -0.912855,-7.66995 -0.995041,-12.42642 -0.08219,-4.75647 0.219262,-8.82378 0.717663,-12.24924 0.498402,-3.425458 1.193757,-6.209061 1.899385,-8.398106 0.705628,-2.189045 1.42153,-3.783532 1.961024,-4.830757"
             style="fill:none;fill-opacity:1;fill-rule:evenodd;stroke:#d6d6d6;stroke-width:2;stroke-linecap:round;stroke-linejoin:miter;stroke-miterlimit:4;stroke-dasharray:none;stroke-opacity:1" />
          <path
             style="fill:none;fill-opacity:1;fill-rule:evenodd;stroke:#d6d6d6;stroke-width:2;stroke-linecap:round;stroke-linejoin:miter;stroke-miterlimit:4;stroke-dasharray:none;stroke-opacity:1"
             d="m 59.730658,136.56462 c -0.664535,-2.33079 -1.339344,-5.25614 -1.868565,-8.7879 -0.529221,-3.53177 -0.912855,-7.66995 -0.995041,-12.42642 -0.08219,-4.75647 0.219262,-8.82378 0.717663,-12.24924 0.498402,-3.425458 1.193757,-6.209061 1.899385,-8.398106"
             id="path4576"
             inkscape:connector-curvature="0"
             sodipodi:nodetypes="csssc" />
          <path
             sodipodi:nodetypes="csssc"
             inkscape:connector-curvature="0"
             id="path4578"
             d="m 59.730658,136.56462 c -0.664535,-2.33079 -1.339344,-5.25614 -1.868565,-8.7879 -0.529221,-3.53177 -0.912855,-7.66995 -0.995041,-12.42642 -0.08219,-4.75647 0.219262,-8.82378 0.717663,-12.24924 0.498402,-3.425458 1.193757,-6.209061 1.899385,-8.398106"
             style="fill:none;fill-opacity:1;fill-rule:evenodd;stroke:#d6d6d6;stroke-width:2;stroke-linecap:round;stroke-linejoin:miter;stroke-miterlimit:4;stroke-dasharray:none;stroke-opacity:1" />
          <path
             style="fill:none;fill-opacity:1;fill-rule:evenodd;stroke:#d6d6d6;stroke-width:2;stroke-linecap:round;stroke-linejoin:miter;stroke-miterlimit:4;stroke-dasharray:none;stroke-opacity:1"
             d="m 52.570426,127.77672 c -0.529221,-3.53177 -0.912855,-7.66995 -0.995041,-12.42642 -0.08219,-4.75647 0.219262,-8.82378 0.717663,-12.24924"
             id="path4580"
             inkscape:connector-curvature="0"
             sodipodi:nodetypes="csc" />
        </g>
        <g
           id="g4592">
          <circle
             style="fill:#f2f2f2;fill-opacity:0.07476633;stroke:#a6a6a6;stroke-width:4;stroke-linecap:round;stroke-miterlimit:4;stroke-dasharray:none;stroke-dashoffset:0;stroke-opacity:1"
             id="path4586"
             cx="81.111717"
             cy="116.33057"
             r="21.627615" />
          <path
             style="fill:none;fill-rule:evenodd;stroke:#a6a6a6;stroke-width:4;stroke-linecap:butt;stroke-linejoin:miter;stroke-miterlimit:4;stroke-dasharray:none;stroke-opacity:1"
             d="M 66.358636,133.04449 93.005957,97.703718"
             id="path4588"
             inkscape:connector-curvature="0" />
        </g>
      </g>
    </g>
  </g>
</svg>
