<?xml version="1.0" encoding="UTF-8" standalone="no"?>
<!-- Created with Inkscape (http://www.inkscape.org/) -->

<svg
   xmlns:dc="http://purl.org/dc/elements/1.1/"
   xmlns:cc="http://creativecommons.org/ns#"
   xmlns:rdf="http://www.w3.org/1999/02/22-rdf-syntax-ns#"
   xmlns:svg="http://www.w3.org/2000/svg"
   xmlns="http://www.w3.org/2000/svg"
   xmlns:sodipodi="http://sodipodi.sourceforge.net/DTD/sodipodi-0.dtd"
   xmlns:inkscape="http://www.inkscape.org/namespaces/inkscape"
   width="162pt"
   height="252pt"
   viewBox="0 0 202.50001 315.00001"
   id="svg2"
   version="1.1"
   inkscape:version="0.91 r13725"
   sodipodi:docname="card-batanimo.svg"
   enable-background="new"
   inkscape:export-filename="/Users/martin/code/gitwork/war/resources/card-batanimo-6a.png"
   inkscape:export-xdpi="90.099998"
   inkscape:export-ydpi="90.099998">
  <defs
     id="defs4" />
  <sodipodi:namedview
     id="base"
     pagecolor="#ffffff"
     bordercolor="#666666"
     borderopacity="1.0"
     inkscape:pageopacity="0.0"
     inkscape:pageshadow="2"
     inkscape:zoom="1.1167937"
     inkscape:cx="83.791607"
     inkscape:cy="170.62297"
     inkscape:document-units="px"
     inkscape:current-layer="svg2"
     showgrid="false"
     units="pt"
     inkscape:window-width="1440"
     inkscape:window-height="851"
     inkscape:window-x="0"
     inkscape:window-y="1"
     inkscape:window-maximized="1"
     inkscape:snap-bbox="true"
     inkscape:bbox-nodes="true"
     inkscape:snap-global="false"
     inkscape:snap-page="true" />
  <metadata
     id="metadata7">
    <rdf:RDF>
      <cc:Work
         rdf:about="">
        <dc:format>image/svg+xml</dc:format>
        <dc:type
           rdf:resource="http://purl.org/dc/dcmitype/StillImage" />
        <dc:title></dc:title>
      </cc:Work>
    </rdf:RDF>
  </metadata>
  <g
     inkscape:label="a1"
     inkscape:groupmode="layer"
     id="layer1"
     transform="translate(0,-737.36219)"
     style="display:inline"
     sodipodi:insensitive="true">
    <rect
       style="fill:#d2cbaf;fill-opacity:1;stroke:none;stroke-width:1;stroke-linecap:butt;stroke-miterlimit:4;stroke-dasharray:none;stroke-dashoffset:0;stroke-opacity:1"
       id="rect4366"
       width="202.5"
       height="315"
       x="0"
       y="737.36218"
       ry="8.2310534" />
  </g>
  <g
     inkscape:groupmode="layer"
     id="layer2"
     inkscape:label="a2" />
  <g
     inkscape:groupmode="layer"
     id="layer3"
     inkscape:label="a3" />
  <g
     inkscape:groupmode="layer"
     id="layer4"
     inkscape:label="a4" />
  <g
     inkscape:groupmode="layer"
     id="layer5"
     inkscape:label="a5" />
  <g
     inkscape:groupmode="layer"
     id="layer6"
     inkscape:label="a6"
     style="display:inline">
    <rect
       style="fill:#5ba07e;fill-opacity:1;stroke:none;stroke-width:2;stroke-linecap:butt;stroke-miterlimit:4;stroke-dasharray:none;stroke-dashoffset:0;stroke-opacity:1"
       id="rect4475"
       width="163.35477"
       height="241.23317"
       x="20.261055"
       y="45.907883"
       ry="81.677383" />
    <path
       style="fill:#b6b6b6;fill-opacity:1;fill-rule:evenodd;stroke:#000000;stroke-width:1px;stroke-linecap:butt;stroke-linejoin:miter;stroke-opacity:1"
       d="m 113.33528,107.3242 c 37.35632,0.63316 74.71263,43.6879 74.71263,43.6879 l -0.63316,77.87843 c 0,0 -22.79368,13.92947 -46.85368,14.56262 -24.06,0.63316 -96.240012,-29.12526 -96.240012,-29.12526 l 2.532631,-91.8079 c 0,0 27.85895,-17.09526 66.481591,-15.19579 z"
       id="path4491"
       inkscape:connector-curvature="0"
       sodipodi:nodetypes="cccsccc" />
    <path
       style="fill:#b6b6b6;fill-opacity:1;fill-rule:evenodd;stroke:#000000;stroke-width:1px;stroke-linecap:butt;stroke-linejoin:miter;stroke-opacity:1"
       d="m 39.255793,304.23632 47.486848,0 1.266316,-74.71264 c 0,0 3.165789,-10.76368 6.33158,-11.39684 3.165789,-0.63316 8.864213,14.56263 8.864213,14.56263 l 0.63316,72.02171 58.25053,-0.47486 -0.63316,-126.63159 c 0,0 -10.13053,-34.82369 -65.215269,-34.82369 -55.084744,0 -53.818427,29.12527 -53.818427,29.12527 z"
       id="path4477"
       inkscape:connector-curvature="0"
       sodipodi:nodetypes="cccsccccscc" />
    <rect
       style="fill:#e0dd27;fill-opacity:0.70278639;stroke:none;stroke-width:2;stroke-linecap:butt;stroke-miterlimit:4;stroke-dasharray:none;stroke-dashoffset:0;stroke-opacity:1"
       id="rect4493"
       width="31.657898"
       height="286.82053"
       x="10.763685"
       y="14.249986"
       ry="0" />
    <g
       id="g4460">
      <path
         inkscape:connector-curvature="0"
         id="path4444"
         d="m 7.5978956,11.717354 0,293.152116"
         style="fill:none;fill-rule:evenodd;stroke:#000000;stroke-width:1px;stroke-linecap:butt;stroke-linejoin:miter;stroke-opacity:1" />
      <path
         inkscape:connector-curvature="0"
         id="path4446"
         d="m 6.9647376,303.60316 38.6226364,0"
         style="fill:none;fill-rule:evenodd;stroke:#000000;stroke-width:1px;stroke-linecap:butt;stroke-linejoin:miter;stroke-opacity:1" />
      <path
         style="fill:none;fill-rule:evenodd;stroke:#000000;stroke-width:1px;stroke-linecap:butt;stroke-linejoin:miter;stroke-opacity:1"
         d="m 6.9647376,255.16658 38.6226364,0"
         id="path4448"
         inkscape:connector-curvature="0" />
      <path
         inkscape:connector-curvature="0"
         id="path4450"
         d="m 6.9647376,206.72999 38.6226364,0"
         style="fill:none;fill-rule:evenodd;stroke:#000000;stroke-width:1px;stroke-linecap:butt;stroke-linejoin:miter;stroke-opacity:1" />
      <path
         style="fill:none;fill-rule:evenodd;stroke:#000000;stroke-width:1px;stroke-linecap:butt;stroke-linejoin:miter;stroke-opacity:1"
         d="m 6.9647376,158.29343 38.6226364,0"
         id="path4452"
         inkscape:connector-curvature="0" />
      <path
         inkscape:connector-curvature="0"
         id="path4454"
         d="m 6.9647376,109.85684 38.6226364,0"
         style="fill:none;fill-rule:evenodd;stroke:#000000;stroke-width:1px;stroke-linecap:butt;stroke-linejoin:miter;stroke-opacity:1" />
      <path
         style="fill:none;fill-rule:evenodd;stroke:#000000;stroke-width:1px;stroke-linecap:butt;stroke-linejoin:miter;stroke-opacity:1"
         d="m 6.9647376,61.420252 38.6226364,0"
         id="path4456"
         inkscape:connector-curvature="0" />
      <path
         inkscape:connector-curvature="0"
         id="path4458"
         d="m 6.9647376,12.983676 38.6226364,0"
         style="fill:none;fill-rule:evenodd;stroke:#000000;stroke-width:1px;stroke-linecap:butt;stroke-linejoin:miter;stroke-opacity:1" />
    </g>
    <path
       style="fill:#b6b6b6;fill-opacity:1;fill-rule:evenodd;stroke:#000000;stroke-width:1px;stroke-linecap:butt;stroke-linejoin:miter;stroke-opacity:1"
       d="M 84.131392,71.113535 C 81.915966,44.529129 66.777222,32.34461 59.761706,32.34461 c -7.015516,0 -29.539014,28.430545 -31.385203,46.522715 -1.548175,15.17171 1.107714,82.707015 14.769508,84.922385 13.661793,2.21537 40.246906,-43.56889 42.093094,-49.47653 1.846188,-5.90764 -10.338654,-8.49224 -11.07713,-22.153665 -0.738475,-13.66142 9.969417,-21.04598 9.969417,-21.04598 z"
       id="path4427"
       inkscape:connector-curvature="0"
       sodipodi:nodetypes="csssssc" />
    <path
       style="fill:#b6b6b6;fill-opacity:1;fill-rule:evenodd;stroke:#000000;stroke-width:1px;stroke-linecap:butt;stroke-linejoin:miter;stroke-opacity:1"
       d="m 53.853903,91.421065 c 1.476951,-11.07683 23.261973,-29.16901 30.646727,-30.27669 7.384754,-1.10768 38.40072,-8.123003 51.69327,22.89213 13.29256,31.015135 -13.66179,47.999615 -14.03103,57.230305 -0.36924,9.2307 14.76951,21.04598 14.76951,21.04598 0,0 -17.35417,-8.49223 -33.60063,-3.69227 -16.246457,4.79997 -34.339102,15.87679 -34.339102,15.87679 0,0 7.753991,-22.89212 5.907803,-29.53822 -1.846189,-6.6461 -29.169777,0 -21.046548,-53.538025 z"
       id="path4425"
       inkscape:connector-curvature="0" />
    <path
       style="fill:#ffffff;fill-opacity:1;fill-rule:evenodd;stroke:#000000;stroke-width:1px;stroke-linecap:butt;stroke-linejoin:miter;stroke-opacity:1"
       d="m 103.70099,134.98994 c 9.23094,-5.16919 9.60018,-1.84614 9.60018,-1.84614 0,0 2.21543,12.92297 11.44636,17.35371 9.23095,4.43073 41.72279,-2.45929 51.69328,-2.21537 1.05128,0.0257 2.58816,-0.0262 2.9539,1.10769 0.36574,1.13389 -1.06847,2.64714 -2.21542,3.32305 -9.27234,5.46429 -40.61615,22.89212 -58.33955,14.76911 -17.72341,-8.12302 -22.523504,-20.30754 -22.523504,-20.30754 0,0 -2.215427,-8.123 7.384754,-12.18451 z"
       id="path4429"
       inkscape:connector-curvature="0"
       sodipodi:nodetypes="ccsszsscc" />
    <path
       style="fill:#ffffff;fill-opacity:1;fill-rule:evenodd;stroke:#000000;stroke-width:1px;stroke-linecap:butt;stroke-linejoin:miter;stroke-opacity:1"
       d="m 63.454082,132.03612 c 5.169328,5.53842 5.169328,12.92297 5.169328,12.92297 0,0 -6.27704,15.87679 -14.769507,19.19985 -8.492466,3.32305 -16.661591,-4.171 -21.046548,-10.70761 -0.683639,-1.01909 -0.969105,-2.63011 -0.300005,-3.6692 0.6691,-1.03908 2.012257,-0.25142 3.115443,0.18462 1.366497,0.54011 12.323307,9.76145 14.90797,4.96149 2.584664,-4.79996 1.476951,-21.78444 1.476951,-21.78444 0,0 7.015516,-3.32305 11.446368,-1.10768 z"
       id="path4431"
       inkscape:connector-curvature="0"
       sodipodi:nodetypes="ccsszsscc" />
    <path
       style="display:inline;fill:#ffffff;fill-opacity:1;fill-rule:evenodd;stroke:#000000;stroke-width:1px;stroke-linecap:butt;stroke-linejoin:miter;stroke-opacity:1"
       d="m 80.908172,88.723595 8.354896,-15.66501 c 0,0 24.281422,10.44334 11.749072,24.28076 -12.532344,13.837425 -20.103968,-8.61575 -20.103968,-8.61575 z"
       id="path4415"
       inkscape:connector-curvature="0" />
    <path
       style="display:inline;fill:#b6b6b6;fill-opacity:1;fill-rule:evenodd;stroke:#000000;stroke-width:2;stroke-linecap:butt;stroke-linejoin:miter;stroke-miterlimit:4;stroke-dasharray:none;stroke-opacity:1"
       d="m 106.03939,78.616875 c 0,0 -6.266169,-19.32018 0,-29.763517 6.26618,-10.44334 30.80868,-26.630515 30.80868,-26.630515 0,0 17.23197,-14.6206761 30.28649,4.177335 13.05452,18.798011 34.98613,72.581207 9.39926,93.990052 -25.58686,21.40885 -58.48426,-7.8325 -58.48426,-7.8325 0,0 10.9658,-9.399 6.78835,-17.231505 -4.17744,-7.83251 -18.79852,-16.70935 -18.79852,-16.70935 z"
       id="path4411"
       inkscape:connector-curvature="0" />
    <path
       style="display:inline;fill:#ffffff;fill-opacity:1;fill-rule:evenodd;stroke:#000000;stroke-width:1px;stroke-linecap:butt;stroke-linejoin:miter;stroke-opacity:1"
       d="M 78.036176,87.940345 67.331467,77.497005 c 0,0 -20.103966,10.96551 -8.615986,21.66993 11.487981,10.704415 19.320695,-11.22659 19.320695,-11.22659 z"
       id="path4417"
       inkscape:connector-curvature="0" />
    <path
       style="display:inline;fill:#323232;fill-opacity:1;fill-rule:evenodd;stroke:#000000;stroke-width:1px;stroke-linecap:butt;stroke-linejoin:miter;stroke-opacity:1"
       d="m 83.780167,84.807345 c 0,0 5.482901,17.753665 10.70471,9.92117 5.22181,-7.8325 -7.571624,-15.92609 -7.571624,-15.92609 z"
       id="path4419"
       inkscape:connector-curvature="0" />
    <path
       style="display:inline;fill:#323232;fill-opacity:1;fill-rule:evenodd;stroke:#000000;stroke-width:1px;stroke-linecap:butt;stroke-linejoin:miter;stroke-opacity:1"
       d="m 69.681281,80.107835 5.22181,4.96059 c 0,0 -5.482901,17.492585 -11.226891,9.13793 -6.245909,-5.43679 6.005081,-14.09852 6.005081,-14.09852 z"
       id="path4421"
       inkscape:connector-curvature="0"
       sodipodi:nodetypes="cccc" />
    <path
       style="fill:none;fill-rule:evenodd;stroke:#000000;stroke-width:1px;stroke-linecap:butt;stroke-linejoin:miter;stroke-opacity:1"
       d="m 59.02323,148.65137 c 0,0 12.923319,-8.86147 22.523499,-8.49224 9.60018,0.36923 25.108161,7.01532 25.108161,7.01532"
       id="path4423"
       inkscape:connector-curvature="0"
       sodipodi:nodetypes="csc" />
    <path
       style="display:inline;fill:#b6b6b6;fill-opacity:1;fill-rule:evenodd;stroke:#000000;stroke-width:1px;stroke-linecap:butt;stroke-linejoin:miter;stroke-opacity:1"
       d="m 82.735805,107.5216 c 0,0 8.208541,2.40868 13.576706,13.57634 4.152889,8.63947 -4.699629,18.79801 -4.699629,18.79801 0,0 -3.655268,6.78818 -10.44362,8.35468 -6.788352,1.56649 -15.665428,-2.08867 -15.665428,-2.08867 0,0 -9.660349,-4.69951 -14.359977,-15.14285 -4.699628,-10.44333 2.871996,-30.80785 2.871996,-30.80785 0,0 5.221809,-12.009835 1.044362,-17.753665 -4.177448,-5.74384 -5.743991,-8.35467 -5.743991,-8.35467 0,0 -1.044362,3.133 -4.699628,4.17733 -3.655267,1.04434 -6.976562,0.9222 -7.832715,-3.133 -0.856154,-4.0552 7.778602,-6.18483 11.487981,-11.74876 2.610905,-3.91625 -0.525299,-5.102883 0,-7.571421 0.943708,-4.434773 6.266172,-8.876837 8.877077,-4.699502 2.610904,4.177335 0,12.009843 0,12.009843 0,0 4.177447,2.61083 8.354895,6.26601 4.177447,3.65516 3.655266,14.0985 3.655266,14.0985 0,0 -1.044361,11.48768 -1.044361,21.931005 0,10.44334 6.788352,15.66501 6.788352,15.66501 0,0 9.399257,-2.61083 7.832714,-13.57634 z"
       id="path4413"
       inkscape:connector-curvature="0"
       sodipodi:nodetypes="cscscscscszssscscscc" />
    <path
       id="path4472"
       style="fill:#392f06;fill-opacity:1;fill-rule:evenodd;stroke:#e9c93e;stroke-width:2.00000006;stroke-linecap:butt;stroke-linejoin:miter;stroke-opacity:1;stroke-miterlimit:4;stroke-dasharray:none"
       d="m 166.00833,54.665651 c 0,6.03031 2.40003,10.10078 5.85007,10.10078 3.15003,0 5.88301,-2.84632 5.85007,-10.10078 -0.0246,-5.41594 -3.30004,-8.14093 -5.70007,-8.14093 -2.40003,0 -5.70007,3.01516 -6.00007,8.14093 z m -1.50002,-42.21221 15.30018,0 c 0,0 -5.18242,7.94797 -7.20008,11.75911 -2.78508,5.26071 -6.60008,16.28185 -6.60008,16.28185 0,0 5.47049,-6.25862 12.60015,-4.37197 6.34767,1.67972 12.60014,8.29168 12.30014,20.65383 -0.30758,12.67424 -9.90012,21.10611 -21.60025,21.10611 -11.70013,0 -18.30021,-15.07579 -18.30021,-25.62885 0,-10.55305 3.30003,-21.40762 13.50015,-39.80008 z"
       inkscape:connector-curvature="0" />
    <path
       style="fill:#ffffff;fill-opacity:1;fill-rule:evenodd;stroke:#000000;stroke-width:1px;stroke-linecap:butt;stroke-linejoin:miter;stroke-opacity:1"
       d="m 41.946716,303.76145 0,-11.55514 c 0,0 0.929693,-4.42188 5.856711,-4.59039 5.847836,-0.2 6.806447,4.59039 6.806447,4.59039 l -0.158289,11.55514 z"
       id="path4479"
       inkscape:connector-curvature="0"
       sodipodi:nodetypes="ccsccc" />
    <path
       sodipodi:nodetypes="ccsccc"
       inkscape:connector-curvature="0"
       id="path4481"
       d="m 55.401323,303.76145 0,-11.55514 c 0,0 0.929693,-4.42188 5.856711,-4.59039 5.847836,-0.2 6.806447,4.59039 6.806447,4.59039 l -0.158289,11.55514 z"
       style="fill:#ffffff;fill-opacity:1;fill-rule:evenodd;stroke:#000000;stroke-width:1px;stroke-linecap:butt;stroke-linejoin:miter;stroke-opacity:1" />
    <path
       style="fill:#ffffff;fill-opacity:1;fill-rule:evenodd;stroke:#000000;stroke-width:1px;stroke-linecap:butt;stroke-linejoin:miter;stroke-opacity:1"
       d="m 69.014219,303.76145 0,-11.55514 c 0,0 0.929693,-4.42188 5.856711,-4.59039 5.847836,-0.2 6.806447,4.59039 6.806447,4.59039 l -0.158289,11.55514 z"
       id="path4483"
       inkscape:connector-curvature="0"
       sodipodi:nodetypes="ccsccc" />
    <path
       sodipodi:nodetypes="ccsccc"
       inkscape:connector-curvature="0"
       id="path4485"
       d="m 108.27001,304.07802 0,-11.55514 c 0,0 0.9297,-4.42188 5.85671,-4.59039 5.84784,-0.2 6.80645,4.59039 6.80645,4.59039 l -0.15829,11.55514 z"
       style="fill:#ffffff;fill-opacity:1;fill-rule:evenodd;stroke:#000000;stroke-width:1px;stroke-linecap:butt;stroke-linejoin:miter;stroke-opacity:1" />
    <path
       style="fill:#ffffff;fill-opacity:1;fill-rule:evenodd;stroke:#000000;stroke-width:1px;stroke-linecap:butt;stroke-linejoin:miter;stroke-opacity:1"
       d="m 121.72462,304.07802 0,-11.55514 c 0,0 0.92969,-4.42188 5.85671,-4.59039 5.84784,-0.2 6.80645,4.59039 6.80645,4.59039 l -0.15829,11.55514 z"
       id="path4487"
       inkscape:connector-curvature="0"
       sodipodi:nodetypes="ccsccc" />
    <path
       sodipodi:nodetypes="ccsccc"
       inkscape:connector-curvature="0"
       id="path4489"
       d="m 135.33752,304.07802 0,-11.55514 c 0,0 0.92969,-4.42188 5.85671,-4.59039 5.84783,-0.2 6.80644,4.59039 6.80644,4.59039 l -0.15828,11.55514 z"
       style="fill:#ffffff;fill-opacity:1;fill-rule:evenodd;stroke:#000000;stroke-width:1px;stroke-linecap:butt;stroke-linejoin:miter;stroke-opacity:1" />
  </g>
  <g
     inkscape:groupmode="layer"
     id="layer7"
     inkscape:label="b1" />
  <g
     inkscape:groupmode="layer"
     id="layer8"
     inkscape:label="b2" />
  <g
     inkscape:groupmode="layer"
     id="layer9"
     inkscape:label="b3" />
  <g
     inkscape:groupmode="layer"
     id="layer10"
     inkscape:label="b4" />
  <g
     inkscape:groupmode="layer"
     id="layer11"
     inkscape:label="b5" />
  <g
     inkscape:groupmode="layer"
     id="layer12"
     inkscape:label="b6" />
  <g
     inkscape:groupmode="layer"
     id="layer13"
     inkscape:label="c1" />
  <g
     inkscape:groupmode="layer"
     id="layer14"
     inkscape:label="c2" />
  <g
     inkscape:groupmode="layer"
     id="layer15"
     inkscape:label="c3" />
  <g
     inkscape:groupmode="layer"
     id="layer16"
     inkscape:label="c4" />
  <g
     inkscape:groupmode="layer"
     id="layer17"
     inkscape:label="c5" />
  <g
     inkscape:groupmode="layer"
     id="layer18"
     inkscape:label="c6" />
  <g
     inkscape:groupmode="layer"
     id="layer19"
     inkscape:label="d1" />
  <g
     inkscape:groupmode="layer"
     id="layer20"
     inkscape:label="d2" />
  <g
     inkscape:groupmode="layer"
     id="layer21"
     inkscape:label="d3" />
  <g
     inkscape:groupmode="layer"
     id="layer22"
     inkscape:label="d4" />
  <g
     inkscape:groupmode="layer"
     id="layer23"
     inkscape:label="d5" />
  <g
     inkscape:groupmode="layer"
     id="layer24"
     inkscape:label="d6" />
  <g
     inkscape:groupmode="layer"
     id="layer25"
     inkscape:label="e1" />
  <g
     inkscape:groupmode="layer"
     id="layer26"
     inkscape:label="e2" />
  <g
     inkscape:groupmode="layer"
     id="layer27"
     inkscape:label="e3" />
  <g
     inkscape:groupmode="layer"
     id="layer28"
     inkscape:label="e4" />
  <g
     inkscape:groupmode="layer"
     id="layer29"
     inkscape:label="e5" />
  <g
     inkscape:groupmode="layer"
     id="layer30"
     inkscape:label="e6" />
  <g
     inkscape:groupmode="layer"
     id="layer31"
     inkscape:label="f1" />
  <g
     inkscape:groupmode="layer"
     id="layer32"
     inkscape:label="f2" />
  <g
     inkscape:groupmode="layer"
     id="layer33"
     inkscape:label="f3" />
  <g
     inkscape:groupmode="layer"
     id="layer34"
     inkscape:label="f4" />
  <g
     inkscape:groupmode="layer"
     id="layer35"
     inkscape:label="f5" />
  <g
     inkscape:groupmode="layer"
     id="layer36"
     inkscape:label="f6" />
</svg>
